<svg version="1.1" xmlns="http://www.w3.org/2000/svg" style="display: block;" viewBox="0 0 2048 655" width="2048" height="655" preserveAspectRatio="xMidYMid meet">
<path transform="translate(0,0)" fill="rgb(1,36,88)" d="M 765.974 293.37 C 829.18 290.873 837.623 378.635 789.323 404.035 C 774.451 411.855 756.042 407.357 740.944 401.785 L 741.896 436.502 C 742.549 444.581 743.86 453.715 744.859 461.85 L 718.173 461.874 C 722.425 432.397 721.813 406.049 721.9 376.461 C 721.983 348.046 722.029 323.137 719.554 294.844 C 722.534 294.787 738.686 293.853 741.283 295.742 C 741.983 296.251 740.666 298.759 743.456 300.801 C 747.38 300.385 758.754 295.042 765.974 293.37 z"/>
<path transform="translate(0,0)" fill="rgb(255,255,255)" d="M 761.467 305.11 C 797.852 299.42 803.143 349.448 794.399 373.974 C 790.316 385.426 787.383 390.652 776.562 396.255 C 762.572 399.961 752.544 395.982 741.294 387.983 C 740.489 364.028 740.852 340.048 742.382 316.128 C 749.54 309.705 752.358 308.316 761.467 305.11 z"/>
<path transform="translate(0,0)" fill="rgb(1,36,88)" d="M 1198.19 243.083 L 1223.4 243.153 C 1218.89 286.627 1218.32 363.339 1223.97 406.728 C 1219.73 406.843 1203.19 407.695 1200.56 406.04 L 1199.61 401.374 C 1195.38 399.818 1186.66 405.481 1182.64 407.33 C 1172.71 411.901 1159.32 406.689 1149.69 403.019 C 1107.62 377.872 1113.44 312.24 1159.33 294.866 C 1172.94 289.714 1188.72 296.015 1200.98 302.681 C 1201.22 283.315 1199.47 262.484 1198.19 243.083 z"/>
<path transform="translate(0,0)" fill="rgb(255,255,255)" d="M 1166.36 304.929 C 1188.97 303.117 1200.46 312.133 1201.24 335.318 C 1201.83 352.579 1200.81 369.347 1199.81 386.545 C 1191.65 393.701 1189.52 394.809 1179.14 397.516 C 1175.42 397.294 1172.09 397.106 1168.49 396.07 C 1160.58 393.774 1153.92 388.398 1150.02 381.149 C 1143.14 368.655 1141.45 343.569 1145.68 330.004 C 1149.72 317.04 1154.99 311.261 1166.36 304.929 z"/>
<path transform="translate(0,0)" fill="rgb(1,36,88)" d="M 1768.19 292.382 C 1806.06 292.638 1818.01 316.976 1820.38 351.354 C 1795.43 352.87 1764.09 351.917 1738.72 351.741 C 1741.02 365.172 1743.65 377.598 1753.73 387.585 C 1769.57 403.276 1790.63 399.948 1805.5 385.313 C 1808.33 382.652 1812.59 377.661 1815.33 374.638 C 1813.62 385.069 1811.08 391.039 1806.8 400.41 C 1770.5 421.393 1721.46 403.007 1716.22 359.08 C 1711.84 322.376 1731.48 297.31 1768.19 292.382 z"/>
<path transform="translate(0,0)" fill="rgb(255,255,255)" d="M 1762.44 304.203 C 1787.36 300.753 1793.75 319.924 1797.53 340.055 L 1772.75 340.059 L 1739.06 340.051 C 1741.42 321.288 1744.1 311.369 1762.44 304.203 z"/>
<path transform="translate(0,0)" fill="rgb(1,36,88)" d="M 1484.4 292.377 C 1522.32 291.967 1535.02 317.311 1537.3 351.442 C 1511.68 352.704 1481.73 351.902 1455.73 351.759 C 1461.4 387.205 1484.04 412.59 1519.23 388.723 C 1521.65 385.698 1524.73 380.316 1528.82 381.664 C 1530.35 387.647 1526.13 394.893 1523.48 400.369 C 1503.74 412.358 1475.4 412.606 1456.57 398.681 C 1430.88 379.696 1424.94 339.905 1443.83 314.21 C 1454 300.387 1468.05 294.838 1484.4 292.377 z"/>
<path transform="translate(0,0)" fill="rgb(255,255,255)" d="M 1479.65 304.147 C 1505.55 302.211 1509.74 318.607 1514.19 340.073 L 1491.5 340.058 L 1455.93 340.048 C 1459.06 320.712 1460.5 312.276 1479.65 304.147 z"/>
<path transform="translate(0,0)" fill="rgb(1,36,88)" d="M 648.125 293.218 C 687.054 287.612 702.071 317.308 703.192 351.44 C 678.542 352.508 651.232 351.835 626.392 351.662 C 629.24 386.111 653.731 413.152 686.388 388.288 C 690.835 382.845 694.204 379.446 699.145 374.56 C 696.288 385.143 694.601 391.451 689.119 401.19 C 629.973 431.773 582.787 368.711 612.764 315.587 C 620.674 301.569 633.289 296.709 648.125 293.218 z"/>
<path transform="translate(0,0)" fill="rgb(255,255,255)" d="M 648.678 304.042 C 673.315 302.422 677.548 319.332 680.755 340.086 L 662.25 340.061 L 626.449 340.055 C 627.619 321.718 631.149 311.439 648.678 304.042 z"/>
<path transform="translate(0,0)" fill="rgb(1,36,88)" d="M 992.291 292.403 C 1028.72 291.524 1038.67 320.807 1041.01 351.449 C 1015.85 352.242 988.849 351.846 963.523 351.872 C 967.356 374.491 977.222 403.209 1008.44 396.847 C 1013.76 395.763 1019.61 391.422 1023.83 388.023 C 1026.42 384.596 1028.06 380.999 1032.57 382.888 C 1034.87 387.285 1032.49 392.862 1029.61 396.446 C 1023.28 404.337 1014.19 407.386 1004.57 408.702 C 971.385 413.447 944.702 389.362 941.659 356.654 C 938.391 321.528 957.17 296.247 992.291 292.403 z"/>
<path transform="translate(0,0)" fill="rgb(255,255,255)" d="M 986.638 303.916 C 1010.9 302.951 1015.31 319.807 1018.67 340.069 L 996.5 340.06 L 963.641 340.06 C 966.708 321.28 967.675 311.657 986.638 303.916 z"/>
<path transform="translate(0,0)" fill="rgb(1,36,88)" d="M 497.06 243.081 L 523.148 243.133 C 520.856 266.887 519.954 287.113 519.357 310.926 C 529.184 303.664 543.623 293.296 555.816 292.411 C 593.264 289.693 585.354 346.798 585.637 367.846 C 585.868 380.749 586.725 393.633 588.206 406.453 C 580.189 406.801 570.828 406.655 562.704 406.726 C 566.21 390.97 565.978 364.944 565.97 348.5 C 565.99 347.481 566.005 346.462 566.014 345.443 C 566.109 334.924 566.085 319.779 558.001 311.809 C 555.163 309.006 551.31 307.471 547.322 307.556 C 536.612 307.686 527.303 317.528 520.347 324.64 C 520.213 351.621 520.56 379.868 523.181 406.663 L 496.611 406.642 C 503.234 362.498 501.197 288.055 497.06 243.081 z"/>
<path transform="translate(0,0)" fill="rgb(1,36,88)" d="M 835.487 243.064 L 860.69 243.149 C 858.553 266.903 857.779 287.079 857.37 310.962 C 919.027 265.155 925.886 311.642 923.865 363.976 C 923.348 377.37 924.7 393.299 926.292 406.628 L 900.677 406.719 C 903.995 386.06 903.982 368.579 904.085 347.834 C 904.098 336.761 904.478 321.093 896.628 312.569 C 893.954 309.631 890.209 307.896 886.239 307.755 C 875.306 307.35 865.427 317.182 858.12 324.15 C 857.953 353.009 857.281 377.92 861.207 406.625 L 835.505 406.656 C 840.443 359.999 838.612 290.112 835.487 243.064 z"/>
<path transform="translate(0,0)" fill="rgb(1,36,88)" d="M 1286.91 250.777 C 1296.26 250.315 1307.72 250.638 1317.22 250.67 C 1322.53 277.393 1355.9 347.833 1368.49 375.032 C 1384.1 338.337 1409.57 287.207 1419.31 250.685 L 1440.94 250.71 C 1436.5 258.873 1432.41 267.22 1428.67 275.729 C 1424.39 288.063 1408.54 321.964 1402.71 334.85 C 1393.71 354.766 1379.7 389.83 1369.55 407.933 C 1367.44 408.797 1362.79 408.238 1360.54 407.74 C 1358.39 407.302 1356.69 403.199 1355.82 401.3 C 1337.58 361.471 1320.53 321.037 1301.77 281.456 C 1296.86 271.116 1291.49 261.303 1286.91 250.777 z"/>
<path transform="translate(0,0)" fill="rgb(1,36,88)" d="M 430.129 247.477 C 446.716 246.444 453.548 248.218 467.894 255.56 C 467.876 260.832 467.826 271.501 466.154 276.249 L 464.621 276.895 C 461.741 274.629 458.598 268.754 456.03 265.714 C 444.758 252.369 416.405 258.831 415.814 277.541 C 414.922 305.729 448.651 318.815 464.24 337.699 C 475.892 351.814 479.074 363.473 473.88 381.176 C 467.778 404.37 445.841 410.533 423.753 408.849 C 411.079 407.144 403.875 403.573 393.331 397.195 C 393.791 391.539 394.031 376.781 398.717 373.845 C 402.765 375.435 410.337 389.234 417.302 394.122 C 426.462 400.55 446.677 398.39 451.519 388.168 C 470.499 348.102 402.077 331.845 395.96 297.119 C 391.336 270.874 404.988 253.195 430.129 247.477 z"/>
<path transform="translate(0,0)" fill="rgb(1,36,88)" d="M 260.681 422.437 C 264.176 421.863 284.766 421.932 289.111 421.955 C 349.777 422.269 445.538 443.105 498.454 473.273 C 468.889 464.984 443.714 457.524 413.389 451.618 C 373.408 443.831 339.636 441.381 299.249 439.315 C 206.94 436.372 148.337 450.179 60.2838 473.376 C 114.008 443.009 198.989 426.289 260.681 422.437 z"/>
<path transform="translate(0,0)" fill="rgb(1,36,88)" d="M 232.996 323.062 C 246.981 322.245 252.98 325.505 264.744 333.554 L 267.153 333.914 C 273.763 327.187 293.556 316.057 299.687 327.994 L 301.682 328.315 C 306.39 332.618 306.369 334.873 306.629 341.35 C 307.192 355.377 306.568 369.847 306.206 383.885 C 287.728 381.787 282.544 381.972 265.841 390.995 C 249.733 382.227 244.069 381.443 225.387 384.112 C 225.115 372.743 223.409 340.111 226.926 330.914 L 229.343 328.756 L 231.538 327.862 L 232.996 323.062 z"/>
<path transform="translate(0,0)" fill="rgb(1,36,88)" d="M 267.153 333.914 C 273.763 327.187 293.556 316.057 299.687 327.994 C 297.059 337.07 298.059 360.738 298.227 371.256 C 284.259 373.102 280.159 374.59 267.367 380.493 C 267.188 364.967 267.116 349.441 267.153 333.914 z"/>
<path transform="translate(0,0)" fill="rgb(1,36,88)" d="M 232.996 323.062 C 246.981 322.245 252.98 325.505 264.744 333.554 C 263.584 347.873 264.123 365.349 264.217 379.919 C 251.603 374.424 246.689 372.968 233.189 370.977 C 233.389 355.005 233.325 339.032 232.996 323.062 z"/>
<path transform="translate(0,0)" fill="rgb(222,227,234)" d="M 229.343 328.756 L 231.538 327.862 L 232.996 323.062 C 233.325 339.032 233.389 355.005 233.189 370.977 C 246.689 372.968 251.603 374.424 264.217 379.919 C 264.123 365.349 263.584 347.873 264.744 333.554 L 267.153 333.914 C 267.116 349.441 267.188 364.967 267.367 380.493 C 280.159 374.59 284.259 373.102 298.227 371.256 C 298.059 360.738 297.059 337.07 299.687 327.994 L 301.682 328.315 C 300.23 340.801 300.919 361.089 301.122 374.307 C 285.375 375.388 280.651 377.009 266.066 384.009 C 252.455 377.781 246.104 374.95 230.634 374.074 C 230.674 365.991 231.349 333.746 229.343 328.756 z"/>
<path transform="translate(0,0)" fill="rgb(1,36,88)" d="M 1667.21 292.325 C 1679.36 291.852 1685.39 293.937 1696.11 299.223 C 1695.94 306.735 1695.57 312.681 1694.85 320.16 C 1693.01 317.475 1689.66 312.5 1687.52 310.215 C 1683.35 305.807 1677.55 303.297 1671.48 303.267 C 1664.53 303.208 1653.83 310.025 1655.47 316.262 C 1661.7 341.159 1702.45 348.388 1702.37 377.095 C 1702.31 401.39 1683.39 408.31 1662.9 409.019 C 1650.28 407.181 1645.16 405.081 1635.14 397.269 C 1635.09 392.474 1633.83 383.331 1638.09 380.704 C 1641.3 381.814 1649.27 391.327 1653.1 394.536 C 1659.45 399.848 1674.55 399.487 1678.27 392.008 C 1692.41 362.648 1639.41 354.975 1636.6 328.094 C 1634.19 304.965 1646.23 296.124 1667.21 292.325 z"/>
<path transform="translate(0,0)" fill="rgb(1,36,88)" d="M 1866.06 292.312 C 1878.48 292.046 1884.19 293.404 1895.04 299.444 C 1895.12 306.299 1894.38 312.675 1893.71 319.475 C 1886.98 310.548 1881.75 304.181 1869.51 303.806 C 1862.05 303.577 1854.8 307.26 1855.45 315.82 C 1856.98 332.512 1875.08 339.697 1886.54 350.208 C 1901.05 363.522 1908.43 381.481 1893.87 398.111 C 1886.03 407.073 1872.53 408.657 1861.09 408.996 C 1848.85 406.974 1843.91 404.935 1834.34 397.303 C 1834.31 389.919 1834.76 383.514 1835.27 376.169 C 1841.53 381.989 1845.66 389.667 1852.56 394.639 C 1859.34 399.525 1873.92 399.804 1877.86 391.446 C 1890.74 364.112 1839.47 354.398 1836.21 329.02 C 1835.06 320.124 1835.37 313.989 1840.1 306.204 C 1845.71 297.206 1856.58 294.284 1866.06 292.312 z"/>
<path transform="translate(0,0)" fill="rgb(1,36,88)" d="M 1607.8 293.077 C 1611.11 292.64 1616.07 292.185 1619.34 292.927 C 1621.37 293.394 1623.14 294.644 1624.26 296.406 C 1627.63 301.818 1623.83 313.206 1622.29 319.361 C 1620.98 317.878 1619.62 316.437 1618.22 315.041 C 1603.72 300.795 1590.03 312.99 1579.52 324.139 C 1577.75 347.771 1579.32 383.655 1581.84 406.762 L 1566.75 406.714 L 1555.18 406.627 C 1559.48 369.515 1559.65 332.04 1555.68 294.89 L 1581.04 295.004 L 1579.72 311.109 C 1590.08 300.745 1593.54 297.192 1607.8 293.077 z"/>
<path transform="translate(0,0)" fill="rgb(1,36,88)" d="M 1108.85 292.262 C 1127.16 293.67 1121.39 304.836 1117.23 317.286 C 1116.16 316.404 1115.07 315.549 1113.96 314.721 C 1098.4 303.194 1087.46 310.479 1077.55 324.144 C 1075.59 347.059 1077.28 384.748 1079.99 406.719 L 1059.81 406.731 L 1056.49 406.13 C 1052.47 402.155 1056.78 389.053 1056.85 382.63 C 1057.15 353.18 1058.34 324.211 1054.58 294.913 L 1079.25 294.74 L 1077.28 310.533 C 1087.79 299.749 1093.98 294.697 1108.85 292.262 z"/>
<path transform="translate(0,0)" fill="rgb(1,36,88)" d="M 174.673 259.021 C 185.669 258.605 198.384 264.521 199.978 276.506 C 203.486 304.995 201.358 334.268 201.134 362.971 C 201.057 372.829 203.831 398.564 196.668 404.46 L 195.049 403.993 C 188.791 395.346 191.205 350.313 191.266 337.75 C 191.29 319.271 192.919 300.818 190.461 282.418 C 189.197 272.963 179.453 266.058 171.442 270.936 C 157.103 279.668 177.535 300.693 172.865 313.976 C 169.946 316.574 171.149 315.851 166.808 316.384 C 164.459 314.757 162.146 308.085 161.134 305.223 C 153.231 282.87 150.544 269.685 174.673 259.021 z"/>
<path transform="translate(0,0)" fill="rgb(239,202,117)" d="M 329.263 238.7 C 331.546 241.093 335.207 264.159 336.071 268.82 L 354.514 256.704 C 350.509 263.011 346.336 269.209 342 275.293 C 350.032 276.648 366.438 279.076 373.38 281.84 C 362.956 284.02 352.491 286.002 341.992 287.784 C 345.834 292.71 351.301 301.523 354.894 307.003 L 336.168 294.093 C 334.06 302.36 332.071 314.704 330.399 323.361 L 330.018 323.262 C 327.621 320.782 324.268 299.106 323.327 293.98 L 303.754 307.238 C 308.194 301.256 312.862 294.026 317.083 287.773 C 306.434 286.144 295.235 283.663 284.74 281.269 C 295.488 279.156 306.267 277.198 317.073 275.399 C 312.969 268.865 308.448 262.537 304.027 256.21 C 310.177 259.952 317.205 264.896 323.27 268.969 C 324.974 258.907 327.193 248.712 329.263 238.7 z"/>
</svg>
